<svg height="64" viewBox="0 0 64 64" width="64" xmlns="http://www.w3.org/2000/svg"><g fill="none" fill-rule="evenodd"><path d="m13 7h14v54.833h-14z" fill="#4796e7"/><g fill="#d8d8d8" fill-rule="nonzero"><path d="m13 21h14v-2h-14z"/><path d="m13 25h14v-2h-14z"/><path d="m13 29h14v-2h-14z"/></g><circle cx="20" cy="51" fill="#0a3586" r="5"/><path d="m27 1h14v54.833h-14z" fill="#c13f98"/><path d="m27 15h14v-2h-14z" fill="#d8d8d8" fill-rule="nonzero"/><path d="m27 19h14v-2h-14z" fill="#d8d8d8" fill-rule="nonzero"/><path d="m27 23h14v-2h-14z" fill="#d8d8d8" fill-rule="nonzero"/><circle cx="34" cy="45" fill="#0a3586" r="5"/><path d="m41 7h14v54.833h-14z" fill="#80d25b"/><path d="m41 21h14v-2h-14z" fill="#d8d8d8" fill-rule="nonzero"/><path d="m41 25h14v-2h-14z" fill="#d8d8d8" fill-rule="nonzero"/><path d="m41 29h14v-2h-14z" fill="#d8d8d8" fill-rule="nonzero"/><circle cx="48" cy="51" fill="#0a3586" r="5"/></g></svg>