<?xml version="1.0" encoding="utf-8"?>
<!-- Generator: Adobe Illustrator 27.5.0, SVG Export Plug-In . SVG Version: 6.00 Build 0)  -->
<svg version="1.1" xmlns="http://www.w3.org/2000/svg" xmlns:xlink="http://www.w3.org/1999/xlink" x="0px" y="0px"
	 viewBox="0 0 750 500" style="enable-background:new 0 0 750 500;" xml:space="preserve">
<g id="BACKGROUND">
	<rect style="fill:#FBF8E4;" width="750" height="500"/>
</g>
<g id="OBJECTS">
	<g>
		<g>
			<g>
				<path style="fill:#DD973D;" d="M37.334,162.465c29.503-3.445,54.961-28.925,58.382-58.43c1.998-17.238-2.14-36.927,8.919-50.3
					c15.59-18.852,45.538-8.975,69.88-11.411C201.267,39.646,220.73,21.91,237.555,0H0v161.611
					C12.412,162.208,25.32,163.868,37.334,162.465z"/>
			</g>
			<g>
				<path style="fill:#DD973D;" d="M750,268.966c-18.442,14.356-41.775,23.548-54.186,43.253
					c-20.577,32.672-3.436,82.339-30.931,109.449c-28.892,28.486-79.498,6.56-117.021,21.994
					c-19.573,8.051-33.61,25.653-44.057,44.059c-2.249,3.963-4.363,8.068-6.306,12.28H750V268.966z"/>
			</g>
		</g>
		<path style="fill:#DD973D;" d="M420.338,465.15c18.847-1.45,20.297,25.371,0,26.096C402.712,491.875,401.491,466.6,420.338,465.15
			z"/>
		<path style="fill:#DD973D;" d="M709.722,17.148c14.539-1.118,15.658,19.572,0,20.132
			C696.124,37.765,695.182,18.266,709.722,17.148z"/>
		<path style="fill:#DD973D;" d="M137.017,411.499c12.828-0.987,13.815,17.269,0,17.762
			C125.02,429.69,124.189,412.486,137.017,411.499z"/>
		<path style="fill:#DD973D;" d="M304.767,8.799c11.017-0.847,11.864,14.83,0,15.254C294.464,24.421,293.75,9.646,304.767,8.799z"/>
		<path style="fill:#DD973D;" d="M642.448,18.983c5.752-0.442,6.195,7.743,0,7.965C637.069,27.14,636.696,19.426,642.448,18.983z"/>
		<path style="fill:#DD973D;" d="M121.01,67.662c5.752-0.442,6.195,7.743,0,7.965C115.63,75.819,115.258,68.105,121.01,67.662z"/>
		<path style="fill:#DD973D;" d="M19.516,478.381c5.752-0.442,6.194,7.743,0,7.964C14.136,486.538,13.764,478.823,19.516,478.381z"
			/>
		<path style="fill:#DD973D;" d="M750,154.87c-31.269,4.114-29.324,46.153,0,46.924V154.87z"/>
		<path style="fill:#DD973D;" d="M37.677,198.031c23.54-1.811,25.35,31.688,0,32.593C15.662,231.411,14.137,199.842,37.677,198.031z
			"/>
		<path style="fill:#DD973D;" d="M590.864,402.078c5.752-0.442,6.195,7.743,0,7.964C585.484,410.234,585.112,402.52,590.864,402.078
			z"/>
	</g>
	<g>
		<g>
			<path style="fill:#343743;" d="M528.626,72.759c0,0,5.396,22.771,7.83,24.161c2.434,1.39,32.369,2.667,50.41-8.012
				c18.041-10.679,23.115-16.174,22.453-20.102s-12.803-27.323-12.803-27.323L528.626,72.759z"/>
			<path style="fill:#4A4E5B;" d="M574.972,76.951c4.832-3.374,42.748-51.121,38.749-53.727c-3.999-2.606-58.861-0.364-63.901,2.245
				c-5.04,2.609-48.453,40.762-47.895,44.308C502.482,73.323,570.141,80.325,574.972,76.951z"/>
			<path style="fill:none;stroke:#343743;stroke-miterlimit:10;" d="M501.924,69.777c0,0,56.888,13.157,71.828,7.08
				c11.468-4.665,40.625-52.288,40.625-52.288"/>
			<path style="fill:#EEC141;" d="M564.495,43.88c0,0,42.274-14.659,46.586-10.906c4.312,3.754,7.836,21.613,7.836,21.613
				s14.74,7.465,18.983,12.471l-2.92,2.852l-15.231-10.634l12.103,12.721c0,0-10.044,11.372-13,8.07
				c-2.956-3.302-2.08-25.045-2.08-25.045l-7.529-20.49l-44.641,11.965L564.495,43.88z"/>
		</g>
		<path style="fill:none;stroke:#343743;stroke-miterlimit:10;" d="M536.456,96.92c0,0,47.515,8.868,73.405-27.175l-6.599-15.568"/>
		<path style="fill:none;stroke:#FBF8E4;stroke-miterlimit:10;" d="M512.397,62.099c0,0,33.343-32.574,38.986-34.113
			c5.643-1.539,35.908-3.334,35.908-3.334"/>
		<path style="fill:none;stroke:#343743;stroke-miterlimit:10;" d="M617.997,57.166c0,0,0.143,16.907,3.439,22.639"/>
		<path style="fill:none;stroke:#343743;stroke-miterlimit:10;" d="M564.602,46.499c0,0,43.873-13.146,44.641-11.965
			c0.768,1.18,7.529,20.49,7.529,20.49"/>
	</g>
	<g>
		<path style="fill:#DE5831;" d="M152.632,463.738c0,0-106.694-68.087-107.149-67.254c-0.456,0.833-12.499,18.968-11.621,19.449
			c2.117,1.158,107.023,67.12,107.908,66.161C142.655,481.135,152.632,463.738,152.632,463.738z"/>
		<path style="fill:#952315;" d="M152.632,463.738c0,0-106.694-68.087-107.149-67.254c-0.178,0.326-2.129,3.299-4.385,6.824
			l108.391,65.879C151.26,466.13,152.632,463.738,152.632,463.738z"/>
		<g>
			<g>
				<line style="fill:none;stroke:#343743;stroke-miterlimit:10;" x1="70.634" y1="427.324" x2="64.578" y2="435.764"/>
				<line style="fill:none;stroke:#343743;stroke-miterlimit:10;" x1="71.61" y1="431.931" x2="67.757" y2="437.595"/>
				<line style="fill:none;stroke:#343743;stroke-miterlimit:10;" x1="74.605" y1="433.727" x2="70.751" y2="439.391"/>
				<line style="fill:none;stroke:#343743;stroke-miterlimit:10;" x1="77.599" y1="435.523" x2="73.745" y2="441.187"/>
				<line style="fill:none;stroke:#343743;stroke-miterlimit:10;" x1="80.593" y1="437.319" x2="76.739" y2="442.983"/>
			</g>
			<g>
				<line style="fill:none;stroke:#343743;stroke-miterlimit:10;" x1="56.573" y1="418.52" x2="50.517" y2="426.959"/>
				<line style="fill:none;stroke:#343743;stroke-miterlimit:10;" x1="57.55" y1="423.126" x2="53.696" y2="428.79"/>
				<line style="fill:none;stroke:#343743;stroke-miterlimit:10;" x1="60.544" y1="424.923" x2="56.691" y2="430.586"/>
				<line style="fill:none;stroke:#343743;stroke-miterlimit:10;" x1="63.538" y1="426.719" x2="59.685" y2="432.382"/>
				<line style="fill:none;stroke:#343743;stroke-miterlimit:10;" x1="66.532" y1="428.515" x2="62.679" y2="434.178"/>
			</g>
			<g>
				<line style="fill:none;stroke:#343743;stroke-miterlimit:10;" x1="41.919" y1="408.968" x2="35.863" y2="417.408"/>
				<line style="fill:none;stroke:#343743;stroke-miterlimit:10;" x1="42.896" y1="413.575" x2="39.042" y2="419.239"/>
				<line style="fill:none;stroke:#343743;stroke-miterlimit:10;" x1="45.89" y1="415.371" x2="42.037" y2="421.035"/>
				<line style="fill:none;stroke:#343743;stroke-miterlimit:10;" x1="48.884" y1="417.167" x2="45.031" y2="422.831"/>
				<line style="fill:none;stroke:#343743;stroke-miterlimit:10;" x1="51.879" y1="418.963" x2="48.025" y2="424.627"/>
			</g>
			<g>
				<line style="fill:none;stroke:#343743;stroke-miterlimit:10;" x1="85.686" y1="436.437" x2="79.63" y2="444.876"/>
				<line style="fill:none;stroke:#343743;stroke-miterlimit:10;" x1="86.663" y1="441.043" x2="82.809" y2="446.707"/>
				<line style="fill:none;stroke:#343743;stroke-miterlimit:10;" x1="89.657" y1="442.84" x2="85.803" y2="448.503"/>
				<line style="fill:none;stroke:#343743;stroke-miterlimit:10;" x1="92.651" y1="444.636" x2="88.798" y2="450.299"/>
				<line style="fill:none;stroke:#343743;stroke-miterlimit:10;" x1="95.646" y1="446.432" x2="91.792" y2="452.096"/>
			</g>
			<g>
				<line style="fill:none;stroke:#343743;stroke-miterlimit:10;" x1="100.739" y1="445.549" x2="94.683" y2="453.989"/>
				<line style="fill:none;stroke:#343743;stroke-miterlimit:10;" x1="101.715" y1="450.156" x2="97.862" y2="455.82"/>
				<line style="fill:none;stroke:#343743;stroke-miterlimit:10;" x1="104.71" y1="451.952" x2="100.856" y2="457.616"/>
				<line style="fill:none;stroke:#343743;stroke-miterlimit:10;" x1="107.704" y1="453.748" x2="103.85" y2="459.412"/>
				<line style="fill:none;stroke:#343743;stroke-miterlimit:10;" x1="110.698" y1="455.544" x2="106.844" y2="461.208"/>
			</g>
			<g>
				<line style="fill:none;stroke:#343743;stroke-miterlimit:10;" x1="115.791" y1="454.661" x2="109.735" y2="463.101"/>
				<line style="fill:none;stroke:#343743;stroke-miterlimit:10;" x1="116.768" y1="459.268" x2="112.914" y2="464.932"/>
				<line style="fill:none;stroke:#343743;stroke-miterlimit:10;" x1="119.762" y1="461.064" x2="115.908" y2="466.728"/>
				<line style="fill:none;stroke:#343743;stroke-miterlimit:10;" x1="122.756" y1="462.86" x2="118.903" y2="468.524"/>
				<line style="fill:none;stroke:#343743;stroke-miterlimit:10;" x1="125.75" y1="464.656" x2="121.897" y2="470.32"/>
			</g>
			<g>
				<line style="fill:none;stroke:#343743;stroke-miterlimit:10;" x1="130.844" y1="463.774" x2="124.788" y2="472.213"/>
				<line style="fill:none;stroke:#343743;stroke-miterlimit:10;" x1="131.82" y1="468.381" x2="127.967" y2="474.044"/>
				<line style="fill:none;stroke:#343743;stroke-miterlimit:10;" x1="134.815" y1="470.177" x2="130.961" y2="475.84"/>
				<line style="fill:none;stroke:#343743;stroke-miterlimit:10;" x1="137.809" y1="471.973" x2="133.955" y2="477.636"/>
				<line style="fill:none;stroke:#343743;stroke-miterlimit:10;" x1="140.803" y1="473.769" x2="136.949" y2="479.432"/>
			</g>
		</g>
	</g>
	<g>
		<g>
			<path style="fill:#599DD3;" d="M652.839,222.07l-2.113-18.374c0,0,49.645-29.52,72.575-3.252
				c22.93,26.267-9.546,62.652-53.918,66.679l-7.119-7.387l-3.884-14.857c0,0,59.362-15.163,51.588-25.346
				c-7.774-10.183-48.59,10.557-50.993,8.983C656.573,226.943,652.839,222.07,652.839,222.07z"/>
			<path style="fill:#599DD3;" d="M652.839,222.07l-2.113-18.374c0,0,49.645-29.52,72.575-3.252
				c22.93,26.267-9.546,62.652-53.918,66.679l-7.119-7.387l-3.884-14.857c0,0,59.362-15.163,51.588-25.346
				c-7.774-10.183-48.59,10.557-50.993,8.983C656.573,226.943,652.839,222.07,652.839,222.07z"/>
			<path style="fill:#DE5831;" d="M730.441,214.702l-20.775,4.513c0.098,0.109,0.213,0.201,0.303,0.318
				c7.774,10.183-51.588,25.346-51.588,25.346l3.884,14.857l7.12,7.387C706.112,263.79,734.689,238.286,730.441,214.702z"/>
			<path style="fill:#4070B2;" d="M702.606,211.022c-11.433-3.243-37.645,5.133-49.879,10.068l0.113,0.98
				c0,0,3.734,4.873,6.137,6.447c2.376,1.557,42.314-18.698,50.706-9.285C709.844,215.842,708.287,212.634,702.606,211.022z"/>
			<path style="fill:#C6F2E1;" d="M670.756,224.912l-5.483-8.91l-1.768-18.59c-7.679,3.254-12.778,6.284-12.778,6.284l2.113,18.373
				c0,0,3.734,4.873,6.137,6.447C659.745,229.02,664.458,227.235,670.756,224.912z"/>
			<path style="fill:#A2E0B9;" d="M659.363,228.596c0.133,0.003,0.285-0.005,0.468-0.03c0.025-0.004,0.057-0.01,0.083-0.014
				c0.169-0.026,0.36-0.064,0.566-0.111c0.064-0.014,0.126-0.028,0.193-0.044c0.235-0.057,0.488-0.124,0.763-0.203
				c0.078-0.022,0.164-0.049,0.246-0.073c0.221-0.065,0.454-0.137,0.697-0.214c0.115-0.036,0.226-0.071,0.345-0.11
				c0.298-0.097,0.611-0.201,0.938-0.313c0.184-0.063,0.376-0.13,0.569-0.197c0.165-0.057,0.333-0.116,0.504-0.176
				c1.736-0.612,3.775-1.37,6.022-2.199l-5.296-8.605c-5.006,1.74-9.478,3.47-12.734,4.784l0.09,0.787l0.022,0.192
				c0,0,3.282,4.283,5.672,6.115c0.159,0.122,0.315,0.233,0.465,0.332c0.066,0.043,0.172,0.064,0.294,0.074
				C659.3,228.593,659.33,228.596,659.363,228.596z"/>
			<path style="fill:#952315;" d="M730.777,221.517c-14.908,27.554-68.512,38.219-68.512,38.219l7.119,7.387
				C702.59,264.109,729.132,242.973,730.777,221.517z"/>
			<path style="fill:#C6F2E1;" d="M675.086,256.58l-3.743-15.085l-0.302-0.181c-7.293,2.194-12.661,3.565-12.661,3.565l3.883,14.857
				l7.12,7.387c4.442-0.403,8.762-1.135,12.922-2.145L675.086,256.58z"/>
			<path style="fill:#A2E0B9;" d="M673.315,266.667c0.843-0.115,1.684-0.234,2.517-0.372c0.22-0.036,0.438-0.08,0.657-0.118
				c0.846-0.147,1.689-0.299,2.523-0.469c0.201-0.041,0.399-0.086,0.599-0.129c0.841-0.177,1.678-0.361,2.507-0.56
				c0.061-0.015,0.121-0.031,0.183-0.046l-7.216-8.394l-0.032-0.13c-7.599,2.253-12.79,3.286-12.79,3.286l7.119,7.387
				c1.084-0.098,2.16-0.218,3.229-0.355C672.848,266.738,673.08,266.699,673.315,266.667z"/>
		</g>
		<path style="fill:none;stroke:#343743;stroke-miterlimit:10;" d="M652.727,221.09c0,0,40.838-16.209,51.817-9.017
			c5.075,3.324,7.541,8.124,5.257,11.446c-4.374,6.362-17.378,10.781-17.378,10.781"/>
		<path style="fill:none;stroke:#343743;stroke-miterlimit:10;" d="M658.381,244.879l3.884,14.857l7.119,7.387
			c0,0,48.512-4.414,59.868-38.335"/>
		<line style="fill:none;stroke:#FBF8E4;stroke-miterlimit:10;" x1="654.04" y1="217.944" x2="652.254" y2="204.652"/>
		<path style="fill:none;stroke:#FBF8E4;stroke-miterlimit:10;" d="M660.29,198.551c0,0,40.008-18.877,59.471-1.331"/>
		<path style="fill:none;stroke:#FBF8E4;stroke-miterlimit:10;" d="M685.258,253.113c12.433-4.574,32.615-13.188,39.058-22.88"/>
		<path style="fill:none;stroke:#FBF8E4;stroke-miterlimit:10;" d="M675.086,256.58c0,0,1.798-0.543,4.72-1.537"/>
	</g>
	<g>
		<g>
			<path style="fill:#5596B1;" d="M555.485,418.419c0.476-2.078-106.576-46.594-107.723-44.451
				c-1.147,2.143-27.436,70.216-24.947,72.142C425.305,448.036,555.009,420.497,555.485,418.419z M449.547,424.511
				c0.527-3.735,7.828-29.539,11.076-30.108c3.248-0.569,49.368,15.949,47.298,18.183
				C505.851,414.819,449.02,428.246,449.547,424.511z"/>
			<path style="fill:#4070B2;" d="M423.995,446.191c13.278-0.701,131.037-25.793,131.49-27.772c0.077-0.337-2.681-1.792-7.341-3.978
				l-124.209,25.044c-0.616,2.166-1.038,3.9-1.204,5.052L423.995,446.191z"/>
			<g>
				<g>
					<line style="fill:none;stroke:#343743;stroke-miterlimit:10;" x1="534.072" y1="420.038" x2="539.123" y2="409.992"/>
					<line style="fill:none;stroke:#343743;stroke-miterlimit:10;" x1="532.25" y1="415.277" x2="535.415" y2="408.57"/>
					<line style="fill:none;stroke:#343743;stroke-miterlimit:10;" x1="528.745" y1="413.861" x2="531.91" y2="407.155"/>
					<line style="fill:none;stroke:#343743;stroke-miterlimit:10;" x1="525.24" y1="412.446" x2="528.405" y2="405.739"/>
					<line style="fill:none;stroke:#343743;stroke-miterlimit:10;" x1="521.735" y1="411.031" x2="524.901" y2="404.324"/>
				</g>
				<g>
					<line style="fill:none;stroke:#343743;stroke-miterlimit:10;" x1="516.438" y1="412.834" x2="521.49" y2="402.787"/>
					<line style="fill:none;stroke:#343743;stroke-miterlimit:10;" x1="514.616" y1="408.073" x2="517.781" y2="401.366"/>
					<line style="fill:none;stroke:#343743;stroke-miterlimit:10;" x1="511.111" y1="406.657" x2="514.277" y2="399.951"/>
					<line style="fill:none;stroke:#343743;stroke-miterlimit:10;" x1="507.606" y1="405.242" x2="510.772" y2="398.535"/>
					<line style="fill:none;stroke:#343743;stroke-miterlimit:10;" x1="504.102" y1="403.826" x2="507.267" y2="397.12"/>
				</g>
				<g>
					<line style="fill:none;stroke:#343743;stroke-miterlimit:10;" x1="498.804" y1="405.629" x2="503.856" y2="395.583"/>
					<line style="fill:none;stroke:#343743;stroke-miterlimit:10;" x1="496.982" y1="400.868" x2="500.148" y2="394.161"/>
					<line style="fill:none;stroke:#343743;stroke-miterlimit:10;" x1="493.478" y1="399.453" x2="496.643" y2="392.746"/>
					<line style="fill:none;stroke:#343743;stroke-miterlimit:10;" x1="489.973" y1="398.038" x2="493.138" y2="391.331"/>
					<line style="fill:none;stroke:#343743;stroke-miterlimit:10;" x1="486.468" y1="396.622" x2="489.633" y2="389.915"/>
				</g>
				<g>
					<line style="fill:none;stroke:#343743;stroke-miterlimit:10;" x1="481.17" y1="398.425" x2="486.222" y2="388.379"/>
					<line style="fill:none;stroke:#343743;stroke-miterlimit:10;" x1="479.349" y1="393.664" x2="482.514" y2="386.957"/>
					<line style="fill:none;stroke:#343743;stroke-miterlimit:10;" x1="475.844" y1="392.249" x2="479.009" y2="385.542"/>
					<line style="fill:none;stroke:#343743;stroke-miterlimit:10;" x1="472.339" y1="390.833" x2="475.504" y2="384.126"/>
					<line style="fill:none;stroke:#343743;stroke-miterlimit:10;" x1="468.834" y1="389.418" x2="471.999" y2="382.711"/>
				</g>
				<g>
					<line style="fill:none;stroke:#343743;stroke-miterlimit:10;" x1="463.537" y1="391.221" x2="468.588" y2="381.174"/>
					<line style="fill:none;stroke:#343743;stroke-miterlimit:10;" x1="461.715" y1="386.46" x2="464.88" y2="379.753"/>
					<line style="fill:none;stroke:#343743;stroke-miterlimit:10;" x1="458.21" y1="385.044" x2="461.375" y2="378.338"/>
					<line style="fill:none;stroke:#343743;stroke-miterlimit:10;" x1="454.705" y1="383.629" x2="457.87" y2="376.922"/>
					<line style="fill:none;stroke:#343743;stroke-miterlimit:10;" x1="451.2" y1="382.214" x2="454.365" y2="375.507"/>
				</g>
			</g>
		</g>
		<path style="fill:none;stroke:#343743;stroke-miterlimit:10;" d="M553.652,416.946c0,0-102.71-44.327-105.89-42.978
			c-2.488,1.056-16.8,43.271-22.716,62.177c-1.644,5.255-2.231,9.965-2.231,9.965"/>
		<path style="fill:none;stroke:#343743;stroke-miterlimit:10;" d="M460.623,394.403c0,0,48.858,15.502,47.298,18.183
			c-1.56,2.68-38.474,9.575-38.474,9.575"/>
		<path style="fill:none;stroke:#FBF8E4;stroke-miterlimit:10;" d="M555.485,418.419c0,0-95.221,22.278-98.892,22.546"/>
	</g>
	<g>
		<g>
			<g>
				<path style="fill:#C6F2E1;" d="M631.748,399.316c0,0-3.763,1.47-5.166-1.861c-1.402-3.33,16.46-11.683,18.569-8.374
					c2.109,3.31-2.252,6.646-2.252,6.646L654,416.446c0,0,25.251-3.023,34.836,21.655c7.587,19.532-7.236,35.176-32.899,38.972
					c-25.663,3.796-46.927-31.579-15.104-53.445L631.748,399.316z"/>
				<path style="fill:none;stroke:#343743;stroke-miterlimit:10;" d="M629.211,396.795c0,0,11.14-2.884,13.591-6.507"/>
				<path style="fill:none;stroke:#FBF8E4;stroke-miterlimit:10;" d="M638.746,428.099c0.665-0.532,1.368-1.055,2.109-1.567"/>
				<path style="fill:none;stroke:#FBF8E4;stroke-miterlimit:10;" d="M626.905,452.579c0,0-1.061-11.104,8.067-20.977
					c0.551-0.596,1.14-1.188,1.768-1.773"/>
				<path style="fill:#EEC141;" d="M629.983,448.632c0,0,3.142,31.174,30.888,24.218c27.746-6.957,30.192-40.415,12.493-48.76
					c0,0-12.923,17.344-23.074,21.665C640.139,450.075,629.983,448.632,629.983,448.632z"/>
				<path style="fill:#F3D43F;" d="M631.457,443.26c4.959-5.202,15.332-0.068,25.766-7.714c5.238-3.839,12.506-14.885,16.141-11.456
					c3.635,3.428-4.877,21.46-22.61,26.382C629.071,456.489,627.227,447.697,631.457,443.26z"/>
			</g>
			<g>
				<g>
					
						<line style="fill:none;stroke:#FCFFFD;stroke-width:0.75;stroke-miterlimit:10;" x1="653.767" y1="447.215" x2="659.629" y2="445.244"/>
					
						<line style="fill:none;stroke:#FCFFFD;stroke-width:0.75;stroke-miterlimit:10;" x1="654.898" y1="444.649" x2="658.731" y2="443.254"/>
					
						<line style="fill:none;stroke:#FCFFFD;stroke-width:0.75;stroke-miterlimit:10;" x1="654.076" y1="442.739" x2="657.909" y2="441.344"/>
					
						<line style="fill:none;stroke:#FCFFFD;stroke-width:0.75;stroke-miterlimit:10;" x1="653.255" y1="440.829" x2="657.087" y2="439.434"/>
					
						<line style="fill:none;stroke:#FCFFFD;stroke-width:0.75;stroke-miterlimit:10;" x1="652.433" y1="438.92" x2="656.266" y2="437.524"/>
				</g>
				<g>
					
						<line style="fill:none;stroke:#FCFFFD;stroke-width:0.75;stroke-miterlimit:10;" x1="657.496" y1="456.361" x2="663.359" y2="454.391"/>
					
						<line style="fill:none;stroke:#FCFFFD;stroke-width:0.75;stroke-miterlimit:10;" x1="658.627" y1="453.796" x2="662.46" y2="452.4"/>
					
						<line style="fill:none;stroke:#FCFFFD;stroke-width:0.75;stroke-miterlimit:10;" x1="657.806" y1="451.886" x2="661.638" y2="450.491"/>
					
						<line style="fill:none;stroke:#FCFFFD;stroke-width:0.75;stroke-miterlimit:10;" x1="656.984" y1="449.976" x2="660.817" y2="448.581"/>
					
						<line style="fill:none;stroke:#FCFFFD;stroke-width:0.75;stroke-miterlimit:10;" x1="656.162" y1="448.067" x2="659.995" y2="446.671"/>
				</g>
				<g>
					
						<line style="fill:none;stroke:#FCFFFD;stroke-width:0.75;stroke-miterlimit:10;" x1="661.253" y1="466.075" x2="667.115" y2="464.105"/>
					
						<line style="fill:none;stroke:#FCFFFD;stroke-width:0.75;stroke-miterlimit:10;" x1="662.384" y1="463.51" x2="666.216" y2="462.114"/>
					
						<line style="fill:none;stroke:#FCFFFD;stroke-width:0.75;stroke-miterlimit:10;" x1="661.562" y1="461.6" x2="665.395" y2="460.205"/>
					
						<line style="fill:none;stroke:#FCFFFD;stroke-width:0.75;stroke-miterlimit:10;" x1="660.74" y1="459.69" x2="664.573" y2="458.295"/>
					
						<line style="fill:none;stroke:#FCFFFD;stroke-width:0.75;stroke-miterlimit:10;" x1="659.919" y1="457.781" x2="663.751" y2="456.385"/>
				</g>
				<g>
					
						<line style="fill:none;stroke:#FCFFFD;stroke-width:0.75;stroke-miterlimit:10;" x1="649.665" y1="437.574" x2="655.528" y2="435.604"/>
					
						<line style="fill:none;stroke:#FCFFFD;stroke-width:0.75;stroke-miterlimit:10;" x1="650.796" y1="435.008" x2="654.629" y2="433.613"/>
					
						<line style="fill:none;stroke:#FCFFFD;stroke-width:0.75;stroke-miterlimit:10;" x1="649.975" y1="433.099" x2="653.807" y2="431.703"/>
					
						<line style="fill:none;stroke:#FCFFFD;stroke-width:0.75;stroke-miterlimit:10;" x1="649.153" y1="431.189" x2="652.986" y2="429.794"/>
					
						<line style="fill:none;stroke:#FCFFFD;stroke-width:0.75;stroke-miterlimit:10;" x1="648.331" y1="429.279" x2="652.164" y2="427.884"/>
				</g>
				<g>
					
						<line style="fill:none;stroke:#FCFFFD;stroke-width:0.75;stroke-miterlimit:10;" x1="645.563" y1="427.933" x2="651.426" y2="425.963"/>
					
						<line style="fill:none;stroke:#FCFFFD;stroke-width:0.75;stroke-miterlimit:10;" x1="646.695" y1="425.368" x2="650.527" y2="423.972"/>
					
						<line style="fill:none;stroke:#FCFFFD;stroke-width:0.75;stroke-miterlimit:10;" x1="645.873" y1="423.458" x2="649.706" y2="422.063"/>
					
						<line style="fill:none;stroke:#FCFFFD;stroke-width:0.75;stroke-miterlimit:10;" x1="645.051" y1="421.548" x2="648.884" y2="420.153"/>
					
						<line style="fill:none;stroke:#FCFFFD;stroke-width:0.75;stroke-miterlimit:10;" x1="644.23" y1="419.639" x2="648.062" y2="418.243"/>
				</g>
				<g>
					
						<line style="fill:none;stroke:#FCFFFD;stroke-width:0.75;stroke-miterlimit:10;" x1="641.462" y1="418.293" x2="647.324" y2="416.323"/>
					
						<line style="fill:none;stroke:#FCFFFD;stroke-width:0.75;stroke-miterlimit:10;" x1="642.593" y1="415.727" x2="646.426" y2="414.332"/>
					
						<line style="fill:none;stroke:#FCFFFD;stroke-width:0.75;stroke-miterlimit:10;" x1="641.771" y1="413.818" x2="645.604" y2="412.422"/>
					
						<line style="fill:none;stroke:#FCFFFD;stroke-width:0.75;stroke-miterlimit:10;" x1="640.95" y1="411.908" x2="644.782" y2="410.512"/>
					
						<line style="fill:none;stroke:#FCFFFD;stroke-width:0.75;stroke-miterlimit:10;" x1="640.128" y1="409.998" x2="643.961" y2="408.603"/>
				</g>
				<g>
					
						<line style="fill:none;stroke:#FCFFFD;stroke-width:0.75;stroke-miterlimit:10;" x1="637.36" y1="408.652" x2="643.223" y2="406.682"/>
					
						<line style="fill:none;stroke:#FCFFFD;stroke-width:0.75;stroke-miterlimit:10;" x1="638.491" y1="406.087" x2="642.324" y2="404.691"/>
					
						<line style="fill:none;stroke:#FCFFFD;stroke-width:0.75;stroke-miterlimit:10;" x1="637.67" y1="404.177" x2="641.502" y2="402.781"/>
					
						<line style="fill:none;stroke:#FCFFFD;stroke-width:0.75;stroke-miterlimit:10;" x1="636.848" y1="402.267" x2="640.681" y2="400.872"/>
					
						<line style="fill:none;stroke:#FCFFFD;stroke-width:0.75;stroke-miterlimit:10;" x1="636.026" y1="400.358" x2="639.859" y2="398.962"/>
				</g>
			</g>
			<path style="fill:none;stroke:#343743;stroke-miterlimit:10;" d="M635.987,472.119c0,0,13.194,12.245,34.373,1.49
				c21.179-10.756,27.48-26.933,11.408-47.04"/>
			<path style="fill:none;stroke:#343743;stroke-miterlimit:10;" d="M632.968,399.425c0,0-5.848,1.909-6.386-1.97
				c-0.538-3.879,11.409-7.955,11.409-7.955"/>
			<path style="fill:none;stroke:#343743;stroke-miterlimit:10;" d="M637.533,397.815c0,0,7.469-0.735,7.843-6.871"/>
			<path style="fill:none;stroke:#343743;stroke-miterlimit:10;" d="M642.899,395.727L654,416.446c0,0,10.995,0.529,14.5,1.792"/>
		</g>
		<g>
			<g>
				<path style="fill:#C6F2E1;" d="M700.139,63.096c0,0-5.213,1.174-4.64-2.539c0.573-3.714,19.844-10.069,21.396-7.116
					c1.551,2.953-2.359,3.834-2.359,3.834s21.431,67.593,20.669,72.437c-0.762,4.844-9.629,9.822-14.857,4.676
					C716.135,130.24,700.139,63.096,700.139,63.096z"/>
				<path style="fill:#952315;" d="M720.642,82.429c0,0,12.953,44.348,11.44,47.007c-1.513,2.659-6.138,5.453-9.178,2.48
					c-1.874-1.833-13.964-45.408-13.964-45.408L720.642,82.429z"/>
				<path style="fill:#DE5831;" d="M708.362,84.63c0.49-2.441,3.619-1.8,6.374-2.235c3.183-0.502,6.003-1.73,5.892,0.656
					C720.42,87.503,707.306,89.89,708.362,84.63z"/>
			</g>
			<g>
				<g>
					
						<line style="fill:none;stroke:#FCFFFD;stroke-width:0.75;stroke-miterlimit:10;" x1="717.808" y1="112.207" x2="723.366" y2="110.974"/>
					
						<line style="fill:none;stroke:#FCFFFD;stroke-width:0.75;stroke-miterlimit:10;" x1="719.093" y1="109.969" x2="722.737" y2="109.064"/>
					
						<line style="fill:none;stroke:#FCFFFD;stroke-width:0.75;stroke-miterlimit:10;" x1="718.527" y1="108.141" x2="722.171" y2="107.236"/>
					
						<line style="fill:none;stroke:#FCFFFD;stroke-width:0.75;stroke-miterlimit:10;" x1="717.96" y1="106.313" x2="721.604" y2="105.408"/>
					
						<line style="fill:none;stroke:#FCFFFD;stroke-width:0.75;stroke-miterlimit:10;" x1="717.394" y1="104.485" x2="721.038" y2="103.58"/>
				</g>
				<g>
					
						<line style="fill:none;stroke:#FCFFFD;stroke-width:0.75;stroke-miterlimit:10;" x1="720.333" y1="120.942" x2="725.891" y2="119.709"/>
					
						<line style="fill:none;stroke:#FCFFFD;stroke-width:0.75;stroke-miterlimit:10;" x1="721.618" y1="118.704" x2="725.261" y2="117.799"/>
					
						<line style="fill:none;stroke:#FCFFFD;stroke-width:0.75;stroke-miterlimit:10;" x1="721.051" y1="116.876" x2="724.695" y2="115.971"/>
					
						<line style="fill:none;stroke:#FCFFFD;stroke-width:0.75;stroke-miterlimit:10;" x1="720.485" y1="115.048" x2="724.129" y2="114.143"/>
					
						<line style="fill:none;stroke:#FCFFFD;stroke-width:0.75;stroke-miterlimit:10;" x1="719.918" y1="113.22" x2="723.562" y2="112.315"/>
				</g>
				<g>
					
						<line style="fill:none;stroke:#FCFFFD;stroke-width:0.75;stroke-miterlimit:10;" x1="722.827" y1="130.199" x2="728.385" y2="128.965"/>
					
						<line style="fill:none;stroke:#FCFFFD;stroke-width:0.75;stroke-miterlimit:10;" x1="724.112" y1="127.96" x2="727.755" y2="127.056"/>
					
						<line style="fill:none;stroke:#FCFFFD;stroke-width:0.75;stroke-miterlimit:10;" x1="723.545" y1="126.132" x2="727.189" y2="125.228"/>
					
						<line style="fill:none;stroke:#FCFFFD;stroke-width:0.75;stroke-miterlimit:10;" x1="722.979" y1="124.305" x2="726.623" y2="123.4"/>
					
						<line style="fill:none;stroke:#FCFFFD;stroke-width:0.75;stroke-miterlimit:10;" x1="722.412" y1="122.477" x2="726.056" y2="121.572"/>
				</g>
				<g>
					
						<line style="fill:none;stroke:#FCFFFD;stroke-width:0.75;stroke-miterlimit:10;" x1="714.991" y1="102.984" x2="720.549" y2="101.751"/>
					
						<line style="fill:none;stroke:#FCFFFD;stroke-width:0.75;stroke-miterlimit:10;" x1="716.276" y1="100.746" x2="719.92" y2="99.841"/>
					
						<line style="fill:none;stroke:#FCFFFD;stroke-width:0.75;stroke-miterlimit:10;" x1="715.71" y1="98.918" x2="719.353" y2="98.013"/>
					
						<line style="fill:none;stroke:#FCFFFD;stroke-width:0.75;stroke-miterlimit:10;" x1="715.143" y1="97.09" x2="718.787" y2="96.185"/>
					
						<line style="fill:none;stroke:#FCFFFD;stroke-width:0.75;stroke-miterlimit:10;" x1="714.577" y1="95.262" x2="718.221" y2="94.357"/>
				</g>
				<g>
					
						<line style="fill:none;stroke:#FCFFFD;stroke-width:0.75;stroke-miterlimit:10;" x1="712.174" y1="93.761" x2="717.732" y2="92.528"/>
					
						<line style="fill:none;stroke:#FCFFFD;stroke-width:0.75;stroke-miterlimit:10;" x1="713.459" y1="91.523" x2="717.103" y2="90.618"/>
					
						<line style="fill:none;stroke:#FCFFFD;stroke-width:0.75;stroke-miterlimit:10;" x1="712.892" y1="89.695" x2="716.536" y2="88.79"/>
					
						<line style="fill:none;stroke:#FCFFFD;stroke-width:0.75;stroke-miterlimit:10;" x1="712.326" y1="87.867" x2="715.97" y2="86.962"/>
					
						<line style="fill:none;stroke:#FCFFFD;stroke-width:0.75;stroke-miterlimit:10;" x1="711.76" y1="86.039" x2="715.404" y2="85.134"/>
				</g>
				<g>
					
						<line style="fill:none;stroke:#FCFFFD;stroke-width:0.75;stroke-miterlimit:10;" x1="709.357" y1="84.538" x2="714.915" y2="83.305"/>
					
						<line style="fill:none;stroke:#FCFFFD;stroke-width:0.75;stroke-miterlimit:10;" x1="710.642" y1="82.3" x2="714.286" y2="81.395"/>
					
						<line style="fill:none;stroke:#FCFFFD;stroke-width:0.75;stroke-miterlimit:10;" x1="710.075" y1="80.472" x2="713.719" y2="79.567"/>
					
						<line style="fill:none;stroke:#FCFFFD;stroke-width:0.75;stroke-miterlimit:10;" x1="709.509" y1="78.644" x2="713.153" y2="77.739"/>
					
						<line style="fill:none;stroke:#FCFFFD;stroke-width:0.75;stroke-miterlimit:10;" x1="708.943" y1="76.816" x2="712.586" y2="75.911"/>
				</g>
				<g>
					
						<line style="fill:none;stroke:#FCFFFD;stroke-width:0.75;stroke-miterlimit:10;" x1="706.54" y1="75.315" x2="712.097" y2="74.081"/>
					
						<line style="fill:none;stroke:#FCFFFD;stroke-width:0.75;stroke-miterlimit:10;" x1="707.825" y1="73.077" x2="711.468" y2="72.172"/>
					
						<line style="fill:none;stroke:#FCFFFD;stroke-width:0.75;stroke-miterlimit:10;" x1="707.258" y1="71.249" x2="710.902" y2="70.344"/>
					
						<line style="fill:none;stroke:#FCFFFD;stroke-width:0.75;stroke-miterlimit:10;" x1="706.692" y1="69.421" x2="710.336" y2="68.516"/>
					
						<line style="fill:none;stroke:#FCFFFD;stroke-width:0.75;stroke-miterlimit:10;" x1="706.125" y1="67.593" x2="709.769" y2="66.688"/>
				</g>
			</g>
			<path style="fill:none;stroke:#343743;stroke-miterlimit:10;" d="M707.561,94.092c0,0,10.118,37.895,12.788,40.296
				c2.67,2.402,7.879,2.898,11.006,0.768c4.633-3.154,4.277-9.052,2.421-13.877"/>
			<path style="fill:none;stroke:#343743;stroke-miterlimit:10;" d="M705.241,61.984c0,0-7.872,2.557-9.583,0.131
				c-2.289-3.247,9.219-7.295,9.219-7.295"/>
			<path style="fill:none;stroke:#343743;stroke-miterlimit:10;" d="M711.877,58.887c0,0,7.621-2.355,5.017-5.446
				c-2.284-2.71-8.214,0.522-8.214,0.522"/>
			<path style="fill:none;stroke:#343743;stroke-miterlimit:10;" d="M698.464,60.938c0,0,13.339-3.946,15.638-6.139"/>
		</g>
		<g>
			<g>
				<path style="fill:#C6F2E1;" d="M66.273,16.181c0,0-4.824-1.669-3.06-6.703c1.764-5.034,25.87,5.586,25.593,9.01
					c-0.277,3.424-5.06,2.787-5.06,2.787L71.486,53.513c0,0,10.539,54.183,3.782,58.486c-6.757,4.303-60.686-9.885-61.779-24.319
					C12.76,78.055,54.793,47.25,54.657,46.429C54.521,45.607,66.273,16.181,66.273,16.181z"/>
				<path style="fill:none;stroke:#FBF8E4;stroke-miterlimit:10;" d="M50.587,53.228c1.394-0.994,2.518-1.692,3.24-1.965"/>
				<path style="fill:none;stroke:#FBF8E4;stroke-miterlimit:10;" d="M24.66,75.323c0,0,14.017-12.854,22.907-19.821"/>
				<path style="fill:#4F8A49;" d="M43.451,61.011c0,0-27.8,24.852-25.626,28.204c2.175,3.351,49.493,23.379,54.621,17.266
					c5.128-6.113,2.342-35.547-1.237-36.371C67.632,69.286,43.451,61.011,43.451,61.011z"/>
				<path style="fill:#64AF5D;" d="M43.451,61.011c2.609-4.616,30.969,6.07,29.136,11.3C70.273,78.916,40.842,65.628,43.451,61.011z
					"/>
			</g>
			<g>
				<g>
					
						<line style="fill:none;stroke:#FCFFFD;stroke-width:0.75;stroke-miterlimit:10;" x1="51.184" y1="76.715" x2="57.567" y2="79.333"/>
					
						<line style="fill:none;stroke:#FCFFFD;stroke-width:0.75;stroke-miterlimit:10;" x1="54.011" y1="75.377" x2="58.262" y2="76.998"/>
					
						<line style="fill:none;stroke:#FCFFFD;stroke-width:0.75;stroke-miterlimit:10;" x1="54.712" y1="73.167" x2="58.963" y2="74.788"/>
					
						<line style="fill:none;stroke:#FCFFFD;stroke-width:0.75;stroke-miterlimit:10;" x1="55.413" y1="70.956" x2="59.664" y2="72.577"/>
					
						<line style="fill:none;stroke:#FCFFFD;stroke-width:0.75;stroke-miterlimit:10;" x1="56.114" y1="68.746" x2="60.365" y2="70.367"/>
				</g>
				<g>
					
						<line style="fill:none;stroke:#FCFFFD;stroke-width:0.75;stroke-miterlimit:10;" x1="47.652" y1="87.152" x2="54.034" y2="89.77"/>
					
						<line style="fill:none;stroke:#FCFFFD;stroke-width:0.75;stroke-miterlimit:10;" x1="50.479" y1="85.814" x2="54.73" y2="87.435"/>
					
						<line style="fill:none;stroke:#FCFFFD;stroke-width:0.75;stroke-miterlimit:10;" x1="51.18" y1="83.604" x2="55.431" y2="85.225"/>
					
						<line style="fill:none;stroke:#FCFFFD;stroke-width:0.75;stroke-miterlimit:10;" x1="51.881" y1="81.393" x2="56.132" y2="83.014"/>
					
						<line style="fill:none;stroke:#FCFFFD;stroke-width:0.75;stroke-miterlimit:10;" x1="52.582" y1="79.183" x2="56.833" y2="80.804"/>
				</g>
				<g>
					
						<line style="fill:none;stroke:#FCFFFD;stroke-width:0.75;stroke-miterlimit:10;" x1="43.728" y1="98.087" x2="50.111" y2="100.705"/>
					
						<line style="fill:none;stroke:#FCFFFD;stroke-width:0.75;stroke-miterlimit:10;" x1="46.555" y1="96.749" x2="50.806" y2="98.37"/>
					
						<line style="fill:none;stroke:#FCFFFD;stroke-width:0.75;stroke-miterlimit:10;" x1="47.256" y1="94.538" x2="51.507" y2="96.159"/>
					
						<line style="fill:none;stroke:#FCFFFD;stroke-width:0.75;stroke-miterlimit:10;" x1="47.958" y1="92.328" x2="52.209" y2="93.949"/>
					
						<line style="fill:none;stroke:#FCFFFD;stroke-width:0.75;stroke-miterlimit:10;" x1="48.659" y1="90.118" x2="52.91" y2="91.739"/>
				</g>
				<g>
					
						<line style="fill:none;stroke:#FCFFFD;stroke-width:0.75;stroke-miterlimit:10;" x1="54.763" y1="65.59" x2="61.145" y2="68.208"/>
					
						<line style="fill:none;stroke:#FCFFFD;stroke-width:0.75;stroke-miterlimit:10;" x1="57.589" y1="64.252" x2="61.841" y2="65.873"/>
					
						<line style="fill:none;stroke:#FCFFFD;stroke-width:0.75;stroke-miterlimit:10;" x1="58.291" y1="62.042" x2="62.542" y2="63.663"/>
					
						<line style="fill:none;stroke:#FCFFFD;stroke-width:0.75;stroke-miterlimit:10;" x1="58.992" y1="59.831" x2="63.243" y2="61.453"/>
					
						<line style="fill:none;stroke:#FCFFFD;stroke-width:0.75;stroke-miterlimit:10;" x1="59.693" y1="57.621" x2="63.944" y2="59.242"/>
				</g>
				<g>
					
						<line style="fill:none;stroke:#FCFFFD;stroke-width:0.75;stroke-miterlimit:10;" x1="58.341" y1="54.465" x2="64.724" y2="57.084"/>
					
						<line style="fill:none;stroke:#FCFFFD;stroke-width:0.75;stroke-miterlimit:10;" x1="61.168" y1="53.127" x2="65.419" y2="54.749"/>
					
						<line style="fill:none;stroke:#FCFFFD;stroke-width:0.75;stroke-miterlimit:10;" x1="61.869" y1="50.917" x2="66.12" y2="52.538"/>
					
						<line style="fill:none;stroke:#FCFFFD;stroke-width:0.75;stroke-miterlimit:10;" x1="62.57" y1="48.707" x2="66.822" y2="50.328"/>
					
						<line style="fill:none;stroke:#FCFFFD;stroke-width:0.75;stroke-miterlimit:10;" x1="63.272" y1="46.496" x2="67.523" y2="48.117"/>
				</g>
				<g>
					
						<line style="fill:none;stroke:#FCFFFD;stroke-width:0.75;stroke-miterlimit:10;" x1="61.92" y1="43.34" x2="68.302" y2="45.959"/>
					
						<line style="fill:none;stroke:#FCFFFD;stroke-width:0.75;stroke-miterlimit:10;" x1="64.747" y1="42.002" x2="68.998" y2="43.624"/>
					
						<line style="fill:none;stroke:#FCFFFD;stroke-width:0.75;stroke-miterlimit:10;" x1="65.448" y1="39.792" x2="69.699" y2="41.413"/>
					
						<line style="fill:none;stroke:#FCFFFD;stroke-width:0.75;stroke-miterlimit:10;" x1="66.149" y1="37.582" x2="70.4" y2="39.203"/>
					
						<line style="fill:none;stroke:#FCFFFD;stroke-width:0.75;stroke-miterlimit:10;" x1="66.85" y1="35.371" x2="71.101" y2="36.992"/>
				</g>
				<g>
					
						<line style="fill:none;stroke:#FCFFFD;stroke-width:0.75;stroke-miterlimit:10;" x1="65.498" y1="32.215" x2="71.881" y2="34.834"/>
					
						<line style="fill:none;stroke:#FCFFFD;stroke-width:0.75;stroke-miterlimit:10;" x1="68.325" y1="30.878" x2="72.577" y2="32.499"/>
					
						<line style="fill:none;stroke:#FCFFFD;stroke-width:0.75;stroke-miterlimit:10;" x1="69.027" y1="28.667" x2="73.278" y2="30.288"/>
					
						<line style="fill:none;stroke:#FCFFFD;stroke-width:0.75;stroke-miterlimit:10;" x1="69.728" y1="26.457" x2="73.979" y2="28.078"/>
					
						<line style="fill:none;stroke:#FCFFFD;stroke-width:0.75;stroke-miterlimit:10;" x1="70.429" y1="24.246" x2="74.68" y2="25.867"/>
				</g>
			</g>
			<path style="fill:none;stroke:#343743;stroke-miterlimit:10;" d="M73.201,19.362c0,0-11.554-3.211-9.987-9.884
				c1.567-6.674,21.688,5.292,22.288,5.563"/>
			<path style="fill:none;stroke:#343743;stroke-miterlimit:10;" d="M67.773,11.482c0,0,13.003,5.407,16.269,5.963"/>
			<path style="fill:none;stroke:#343743;stroke-miterlimit:10;" d="M83.747,21.275L71.486,53.513c0,0,8.72,45.986,5.732,53.965"/>
			<path style="fill:none;stroke:#343743;stroke-miterlimit:10;" d="M13.489,87.68c0,0,2.799,11.321,31.281,20.032
				c26.423,8.081,30.498,4.288,30.498,4.288"/>
		</g>
	</g>
	<g>
		<g>
			<path style="fill:#EEC141;" d="M199.86,432.66c0.617-1.477,40.879-62.595,44.84-61.972c3.96,0.623,76.713,52.546,77.07,54.947
				c0.357,2.4-43.828,65.202-45.643,65.616C274.313,491.665,199.243,434.138,199.86,432.66z"/>
			<path style="fill:none;stroke:#343743;stroke-miterlimit:10;" d="M272.515,488.892c0,0,2.464,2.559,3.612,2.359
				c1.149-0.199,46.17-62.797,45.643-65.616c-0.527-2.819-76.132-55.095-77.07-54.947c-0.938,0.148-3.337,2.246-3.337,2.246"/>
			<path style="fill:#FCFFFD;" d="M194.066,434.387c0.923-0.974,43.534-64.346,45.597-63.672
				c2.063,0.674,74.956,52.375,74.918,56.392c-0.037,4.017-39.459,63.798-39.459,63.798L194.066,434.387z"/>
			<path style="fill:#F3D43F;" d="M190.52,435.578c0.617-1.477,40.879-62.595,44.84-61.972c3.96,0.623,76.713,52.546,77.07,54.947
				c0.357,2.4-37.282,63.301-39.097,63.715C271.519,492.682,189.903,437.056,190.52,435.578z"/>
			<path style="fill:#FCFFFD;" d="M226.373,438.404c0,0-17.01-9.821-16.707-11.416c0.303-1.595,25.179-38.24,27.17-37.08
				c1.991,1.16,15.573,9.861,15.428,11.799C252.12,403.644,227.204,438.852,226.373,438.404z"/>
		</g>
		<path style="fill:none;stroke:#343743;stroke-miterlimit:10;" d="M191.897,436.818c-0.116-1.04,78.361,57.257,81.436,55.45
			c3.075-1.807,40.835-60.869,39.097-63.715c-1.738-2.846-60.955-44.441-60.955-44.441"/>
		<path style="fill:#4A4E5B;" d="M190.825,443.204c0,0,6.188-10.341,7.187-10.126c0.999,0.215,2.644,1.043,2.273,1.634
			c-0.372,0.591-5.687,10.037-6.891,10.312C192.19,445.298,190.804,444.222,190.825,443.204z"/>
		<path style="fill:#4A4E5B;" d="M196.795,447.16c0,0,6.188-10.341,7.187-10.126c0.999,0.215,2.644,1.043,2.273,1.634
			c-0.372,0.591-5.687,10.037-6.891,10.312C198.159,449.255,196.774,448.178,196.795,447.16z"/>
		<path style="fill:#4A4E5B;" d="M202.764,451.116c0,0,6.188-10.341,7.187-10.126c0.999,0.215,2.644,1.043,2.273,1.634
			c-0.372,0.591-5.687,10.037-6.891,10.312C204.129,453.211,202.743,452.134,202.764,451.116z"/>
		<path style="fill:#4A4E5B;" d="M208.733,455.073c0,0,6.188-10.341,7.187-10.126c0.999,0.215,2.644,1.043,2.273,1.634
			c-0.372,0.591-5.687,10.037-6.891,10.312C210.098,457.168,208.712,456.091,208.733,455.073z"/>
		<path style="fill:#4A4E5B;" d="M214.702,459.029c0,0,6.188-10.341,7.187-10.126c0.999,0.215,2.644,1.042,2.273,1.634
			c-0.372,0.591-5.687,10.037-6.891,10.312C216.067,461.124,214.681,460.047,214.702,459.029z"/>
		<path style="fill:#4A4E5B;" d="M220.671,462.985c0,0,6.188-10.341,7.187-10.126c0.999,0.215,2.644,1.043,2.273,1.634
			c-0.372,0.591-5.687,10.037-6.891,10.312C222.036,465.08,220.651,464.003,220.671,462.985z"/>
		<path style="fill:#4A4E5B;" d="M226.641,466.942c0,0,6.188-10.341,7.187-10.126c0.999,0.215,2.644,1.043,2.273,1.634
			c-0.372,0.591-5.687,10.037-6.891,10.312C228.005,469.037,226.62,467.96,226.641,466.942z"/>
		<path style="fill:#4A4E5B;" d="M232.61,470.898c0,0,6.188-10.341,7.187-10.126c0.999,0.215,2.644,1.043,2.273,1.634
			c-0.372,0.591-5.687,10.037-6.891,10.312C233.975,472.993,232.589,471.916,232.61,470.898z"/>
		<path style="fill:#4A4E5B;" d="M238.579,474.855c0,0,6.188-10.341,7.187-10.126c0.999,0.215,2.644,1.043,2.273,1.634
			c-0.371,0.591-5.687,10.037-6.891,10.312C239.944,476.949,238.558,475.872,238.579,474.855z"/>
		<path style="fill:#4A4E5B;" d="M244.548,478.811c0,0,6.188-10.341,7.187-10.126c0.999,0.215,2.644,1.043,2.273,1.634
			c-0.372,0.592-5.687,10.037-6.891,10.312C245.913,480.906,244.527,479.829,244.548,478.811z"/>
		<path style="fill:#4A4E5B;" d="M250.517,482.767c0,0,6.188-10.341,7.187-10.126c0.999,0.215,2.644,1.043,2.273,1.634
			c-0.372,0.592-5.687,10.037-6.891,10.312C251.882,484.862,250.497,483.785,250.517,482.767z"/>
		<path style="fill:#4A4E5B;" d="M256.487,486.724c0,0,6.188-10.341,7.186-10.126c0.999,0.215,2.644,1.043,2.273,1.634
			c-0.372,0.591-5.687,10.037-6.891,10.312C257.852,488.818,256.466,487.742,256.487,486.724z"/>
		<path style="fill:#4A4E5B;" d="M262.456,490.68c0,0,6.188-10.341,7.187-10.126c0.999,0.215,2.644,1.043,2.273,1.634
			c-0.371,0.591-5.687,10.037-6.891,10.312C263.821,492.775,262.435,491.698,262.456,490.68z"/>
		<path style="fill:none;stroke:#FBF8E4;stroke-width:0.75;stroke-miterlimit:10;" d="M191.783,443.285c0,0,5.759-8.39,6.475-9.086"
			/>
		<path style="fill:none;stroke:#FBF8E4;stroke-width:0.75;stroke-miterlimit:10;" d="M197.529,447.278c0,0,6.119-8.8,6.679-9.302"
			/>
		<path style="fill:none;stroke:#FBF8E4;stroke-width:0.75;stroke-miterlimit:10;" d="M203.939,451.391c0,0,5.624-8.815,6.312-9.438
			"/>
		<path style="fill:none;stroke:#FBF8E4;stroke-width:0.75;stroke-miterlimit:10;" d="M209.48,455.6c0,0,5.798-8.835,6.56-9.43"/>
		<path style="fill:none;stroke:#FBF8E4;stroke-width:0.75;stroke-miterlimit:10;" d="M215.677,459.384c0,0,6.038-8.579,6.757-9.399
			"/>
		<path style="fill:none;stroke:#FBF8E4;stroke-width:0.75;stroke-miterlimit:10;" d="M221.327,463.28c0,0,3.165-5.471,3.977-6.233"
			/>
		<path style="fill:none;stroke:#FBF8E4;stroke-width:0.75;stroke-miterlimit:10;" d="M227.618,467.101c0,0,3.817-6.16,4.633-7.054"
			/>
		<path style="fill:none;stroke:#FBF8E4;stroke-width:0.75;stroke-miterlimit:10;" d="M233.421,471.406c0,0,3.395-5.253,4.129-6.045
			"/>
		<path style="fill:none;stroke:#FBF8E4;stroke-width:0.75;stroke-miterlimit:10;" d="M239.371,475.19c0,0,3.44-5.856,4.383-6.615"
			/>
		<path style="fill:none;stroke:#FBF8E4;stroke-width:0.75;stroke-miterlimit:10;" d="M245.391,479.265c0,0,4.034-6.389,4.686-7.078
			"/>
		<path style="fill:none;stroke:#FBF8E4;stroke-width:0.75;stroke-miterlimit:10;" d="M251.448,483c0,0,3.854-5.659,4.157-6.123"/>
		<path style="fill:none;stroke:#FBF8E4;stroke-width:0.75;stroke-miterlimit:10;" d="M257.418,486.679c0,0,3.888-5.939,4.274-6.301
			"/>
		<path style="fill:none;stroke:#FBF8E4;stroke-width:0.75;stroke-miterlimit:10;" d="M263.795,490.918c0,0,4.583-6.628,4.933-7.066
			"/>
	</g>
	<g>
		<g>
			<path style="fill:none;stroke:#343743;stroke-miterlimit:10;" d="M279.519,72.113c2.499-0.664,4.216-1.07,4.216-1.07"/>
			<g>
				<g>
					<path style="fill:#5596B1;" d="M216.343,118.633c0,0-29.24,0.536-37.627,2.41s-23.802,10.669-25.757,7.716
						c-1.956-2.953-10.349-65.644-7.757-67.503c2.592-1.859,46.121-18.232,60.1-6.534c0,0,21.787-26.751,46.867-26.939
						c0,0,40.557,58.661,36.883,60.812c-3.673,2.15-47.287,13.906-56.683,24.945L216.343,118.633z"/>
					<path style="fill:none;stroke:#343743;stroke-miterlimit:10;" d="M176.931,121.589l39.412-2.956l16.026-5.093
						c0,0,12.837-7.93,19.374-11.562c6.537-3.632,36.365-11.755,37.309-13.383c0.944-1.628-6.24-14.55-6.24-14.55"/>
					<path style="fill:#C6F2E1;" d="M192.038,113.321c-7.409,0.865-35.945,13.652-36.706,11.876s-6.222-68.232-6.222-68.232
						s22.153-10.217,30.566-10.504c8.414-0.287,25.626,8.261,25.626,8.261l17.5,62.477
						C222.801,117.199,199.447,112.456,192.038,113.321z"/>
					<path style="fill:#C6F2E1;" d="M205.136,55.173c0.48-0.548,31.523-25.804,50.209-25.607c0,0,29.955,40.576,30.834,43.061
						c0,0-18.995,7.692-25.854,13.309c-6.86,5.618-37.523,31.262-37.523,31.262L205.136,55.173z"/>
					<path style="fill:#FCFFFD;" d="M205.302,54.722c0,0,8.051-14.116,15.917-18.33s16.093-10.2,26.393-10.045l36.124,44.695
						c0,0-16.515,3.196-26.272,11.269c-9.757,8.073-34.792,35.553-34.662,34.887C222.932,116.533,205.302,54.722,205.302,54.722z"/>
					<path style="fill:none;stroke:#343743;stroke-miterlimit:10;" d="M205.302,54.722c0,0,6.291-12.148,15.917-18.33
						c9.626-6.182,26.393-10.045,26.393-10.045l11.922,13.771"/>
					<path style="fill:#C6F2E1;" d="M239.973,54.735c0,0,16.082-6.754,17.368-6.111c1.287,0.643,11.9,16.082,11.9,16.082
						s-16.403,6.754-18.333,9.327L239.973,54.735z"/>
				</g>
				<path style="fill:none;stroke:#343743;stroke-miterlimit:10;" d="M222.19,116.969c0,0-29.029-7.632-36.797-8.253
					c-7.768-0.621-26.101,8.079-26.101,8.079l-5.593-62.767c0,0,17.464-7.985,25.977-7.566c8.514,0.419,25.626,8.261,25.626,8.261
					L222.19,116.969z"/>
				<path style="fill:none;stroke:#343743;stroke-miterlimit:10;" d="M222.19,116.969c0,0,34.821-35.485,40.263-38.834
					c2.382-1.466,6.755-3.007,10.92-4.277"/>
				<path style="fill:none;stroke:#343743;stroke-miterlimit:10;" d="M150.254,73.69l-0.992-14.635c0,0-2.661-0.309-4.059,2.202
					c-1.398,2.511,5.501,66.512,7.757,67.503c2.256,0.991,16.891-4.466,16.891-4.466"/>
			</g>
		</g>
		<path style="fill:none;stroke:#343743;stroke-miterlimit:10;" d="M209.74,59.238c0,0,15.117-16.082,21.871-18.655
			c6.754-2.573,14.473-3.86,14.473-3.86"/>
		<path style="fill:none;stroke:#343743;stroke-miterlimit:10;" d="M214.564,62.454c0,0,10.936-10.935,16.403-14.152
			c5.468-3.216,17.368-5.468,17.368-5.468"/>
		<path style="fill:none;stroke:#343743;stroke-miterlimit:10;" d="M215.207,69.852c0,0,12.222-9.649,20.906-11.579"/>
		<path style="fill:none;stroke:#343743;stroke-miterlimit:10;" d="M218.424,75.319c0,0,12.222-9.649,20.906-11.579"/>
		<path style="fill:none;stroke:#343743;stroke-miterlimit:10;" d="M221.962,81.43c0,0,12.222-9.649,20.906-11.579"/>
	</g>
	<g>
		<g>
			<path style="fill:#5596B1;" d="M143.787,341.795c-2.139,0.697-77.895,26.397-80.289,24.301
				c-2.394-2.096-49.638-87.734-47.604-88.979c2.033-1.245,74.035-22.281,74.035-22.281S145.926,341.098,143.787,341.795z"/>
			<path style="fill:#FCFFFD;" d="M92.904,249.536c0,0,54.334,82.729,53.289,84.273c-1.044,1.544-73.272,28.457-77.821,25.755
				c-4.549-2.702-49.976-85.055-49.96-87.295C18.426,270.029,92.904,249.536,92.904,249.536z"/>
			<path style="fill:none;stroke:#343743;stroke-miterlimit:10;" d="M142.012,326.769c0,0,5.926,5.143,4.18,7.04
				c-1.746,1.897-61.395,24.512-77.821,25.755c0,0-16.45-21.342-49.96-87.295l11.349-4.697"/>
			<path style="fill:#72C6D1;" d="M149.508,327.8c0,0-51.332-80.495-55.646-79.662c-4.314,0.832-72.25,17.52-71.932,21.486
				c0.318,3.966,43.883,85.959,48.281,85.558C74.608,354.781,149.826,331.766,149.508,327.8z"/>
			<path style="fill:none;stroke:#343743;stroke-linecap:round;stroke-linejoin:round;stroke-miterlimit:10;" d="M95.562,263.517
				c0,0,43.718,61.06,40.692,62.235c-3.026,1.175-60.984,24.186-63.364,22.576c-2.381-1.611-36.581-63.915-34.63-66.066
				C40.21,280.111,95.562,263.517,95.562,263.517z"/>
			<path style="fill:none;stroke:#343743;stroke-width:2;stroke-linecap:round;stroke-linejoin:round;stroke-miterlimit:10;" d="
				M84.121,260.616c0,0,7.64-9.284-0.746-15.303c-6.54-4.695-16.543,1.757-12.92,8.03"/>
			<path style="fill:none;stroke:#343743;stroke-width:2;stroke-linecap:round;stroke-linejoin:round;stroke-miterlimit:10;" d="
				M72.703,264.915c0,0,7.64-9.285-0.746-15.304c-6.54-4.695-16.543,1.757-12.92,8.03"/>
			<path style="fill:none;stroke:#343743;stroke-width:2;stroke-linecap:round;stroke-linejoin:round;stroke-miterlimit:10;" d="
				M60.082,268.123c0,0,7.639-9.285-0.746-15.304c-6.54-4.695-16.543,1.757-12.92,8.029"/>
			<path style="fill:none;stroke:#343743;stroke-width:2;stroke-linecap:round;stroke-linejoin:round;stroke-miterlimit:10;" d="
				M48.68,273.081c0,0,7.64-9.284-0.746-15.303c-6.54-4.695-16.543,1.757-12.92,8.029"/>
			<path style="fill:none;stroke:#343743;stroke-width:2;stroke-linecap:round;stroke-linejoin:round;stroke-miterlimit:10;" d="
				M37.561,277.212c0,0,7.64-9.285-0.746-15.304c-6.54-4.695-16.543,1.757-12.92,8.03"/>
		</g>
		<path style="fill:none;stroke:#343743;stroke-miterlimit:10;" d="M78.978,251.717c0,0-56.318,13.929-57.048,17.907
			c-0.73,3.978,44.575,86.51,48.281,85.558c47.847-12.286,79.369-27.082,79.369-27.082"/>
	</g>
	<g>
		<g>
			<path style="fill:#72C6D1;" d="M436.293,24.492c0,0,11.711-8.529,12.017-7.233c0.306,1.295,1.409,7.284,0.542,8.078
				c-0.866,0.795-9.665,6.464-9.665,6.464L436.293,24.492z"/>
			<path style="fill:#599DD3;" d="M375.333,51.984c0,0-6.911,3.99-6.494,5.314c0.417,1.324,8.799,17.347,10.59,16.835
				c1.791-0.512,5.757-2.977,5.757-2.977L375.333,51.984z"/>
			<path style="fill:#599DD3;" d="M418.864,24.808c0,0,4.633-3.705,6.072-3.506c1.44,0.199,7.256,2.877,8.882,2.379
				c1.626-0.498,5.52-3.188,6.187-2.542c0.667,0.645,5.392,7.044,4.747,7.711c-0.645,0.667-6.136,3.396-6.463,4.615
				c-0.327,1.219,0.653,8.014-0.812,9.302c-1.465,1.287-6.229,3.744-6.229,3.744L418.864,24.808z"/>
			<path style="fill:none;stroke:#FBF8E4;stroke-width:0.75;stroke-miterlimit:10;" d="M424.637,23.057c0,0,7.191,3.311,8.499,2.738
				c1.308-0.573,5.913-2.686,5.913-2.686"/>
			<path style="fill:#4A4E5B;" d="M370.972,56.024c-0.975-1.758-0.411-3.965,1.292-5.033c10.932-6.858,47.925-29.87,49.469-28.186
				c1.813,1.976,14.243,22.341,12.626,23.611c-1.618,1.27-49.935,28.923-51.96,27.741C380.888,73.276,374.037,61.553,370.972,56.024
				z"/>
			<path style="fill:none;stroke:#FBF8E4;stroke-width:0.75;stroke-miterlimit:10;" d="M426.653,49.185
				c-10.861,6.286-37.498,21.512-41.466,21.971"/>
			<path style="fill:none;stroke:#FBF8E4;stroke-width:0.75;stroke-miterlimit:10;" d="M431.249,46.512c0,0-0.84,0.492-2.293,1.337"
				/>
			<path style="fill:none;stroke:#72C6D1;stroke-width:2;stroke-miterlimit:10;" d="M377.215,55.243
				c0,0,41.719-25.306,42.864-24.228c1.144,1.078,7.347,10.014,6.53,11.008c-0.817,0.993-41.178,25.341-42.357,24.805
				C383.073,66.291,376.378,55.901,377.215,55.243z"/>
		</g>
		<path style="fill:none;stroke:#343743;stroke-miterlimit:10;" d="M431.239,39.113c0,0-8.357-15.736-10.398-16.745
			c-2.041-1.009-48.402,27.802-49.525,28.888c-1.123,1.086-0.923,7.241,7.895,17.461"/>
		<path style="fill:none;stroke:#343743;stroke-miterlimit:10;" d="M440.006,21.139c0,0,5.299,6.486,4.747,7.711
			c-0.552,1.225-6.078,3.788-6.463,4.615c-0.385,0.827,0.007,8.443-0.812,9.302c-0.819,0.859-3.226,2.133-3.226,2.133"/>
		<path style="fill:none;stroke:#FBF8E4;stroke-width:0.75;stroke-miterlimit:10;" d="M447.499,18.044c0,0,0.879,6.361,0.594,6.875"
			/>
		<path style="fill:none;stroke:#343743;stroke-miterlimit:10;" d="M370.802,54.99c0,0-1.996,1.281-1.963,2.308
			c0.033,1.026,9.057,16.959,10.193,17.004c1.136,0.045,2.354-1.184,2.354-1.184"/>
	</g>
	<g>
		<g>
			<path style="fill:none;stroke:#EEC141;stroke-width:1.5;stroke-linecap:round;stroke-linejoin:round;stroke-miterlimit:10;" d="
				M114.905,135.097c0,0,0.14,11.122,0.719,12.114c0.579,0.992,2.789,1.16,3.285-0.411c0.496-1.571,0.642-21.553-0.103-22.38
				c-0.744-0.827-4.632-1.925-5.541,0.473c-0.91,2.398-0.827,26.954,0.331,28.442c1.157,1.488,6.366,1.075,7.028-0.248
				c0.662-1.323,1.158-16.536,1.158-16.536"/>
		</g>
		<g>
			<path style="fill:none;stroke:#FFFFFF;stroke-width:1.5;stroke-linecap:round;stroke-linejoin:round;stroke-miterlimit:10;" d="
				M571.206,475.444c0,0,9.466,5.841,10.613,5.884c1.148,0.043,2.474-1.733,1.413-2.994c-1.061-1.26-17.855-12.089-18.952-11.904
				c-1.097,0.185-4.107,2.879-2.569,4.932c1.537,2.053,22.316,15.139,24.193,14.96c1.877-0.18,4.318-4.8,3.556-6.067
				s-13.342-9.837-13.342-9.837"/>
		</g>
		<g>
			<path style="fill:none;stroke:#DE5831;stroke-width:1.5;stroke-linecap:round;stroke-linejoin:round;stroke-miterlimit:10;" d="
				M670.867,84.543c0,0,0.14,11.122,0.719,12.114c0.579,0.992,2.789,1.16,3.285-0.411c0.496-1.571,0.641-21.553-0.103-22.38
				c-0.744-0.827-4.631-1.925-5.541,0.473c-0.909,2.398-0.827,26.954,0.331,28.442c1.158,1.488,6.367,1.075,7.028-0.248
				c0.661-1.323,1.157-16.536,1.157-16.536"/>
		</g>
		<g>
			<path style="fill:none;stroke:#952315;stroke-width:1.5;stroke-linecap:round;stroke-linejoin:round;stroke-miterlimit:10;" d="
				M346.952,28.403c0,0-5.473,9.683-5.472,10.832c0.001,1.148,1.827,2.405,3.046,1.297c1.219-1.108,11.395-18.306,11.168-19.395
				c-0.227-1.089-3.035-3.993-5.027-2.378c-1.992,1.615-14.272,22.881-14.02,24.749c0.252,1.868,4.962,4.131,6.199,3.32
				c1.237-0.811,9.318-13.71,9.318-13.71"/>
		</g>
		<g>
			<path style="fill:none;stroke:#4F8A49;stroke-width:1.5;stroke-linecap:round;stroke-linejoin:round;stroke-miterlimit:10;" d="
				M21.934,365.7c0,0,0.14,11.122,0.719,12.114c0.579,0.992,2.789,1.16,3.285-0.411c0.496-1.571,0.642-21.553-0.103-22.38
				c-0.744-0.827-4.631-1.925-5.541,0.473c-0.91,2.398-0.827,26.954,0.331,28.442c1.158,1.488,6.366,1.075,7.028-0.248
				c0.661-1.323,1.158-16.536,1.158-16.536"/>
		</g>
		<g>
			<path style="fill:none;stroke:#4070B2;stroke-width:1.5;stroke-linecap:round;stroke-linejoin:round;stroke-miterlimit:10;" d="
				M358.15,470.054c0,0-8.888,6.687-9.346,7.741c-0.458,1.053,0.713,2.935,2.273,2.407c1.56-0.529,17.763-12.224,17.99-13.313
				c0.227-1.089-1.185-4.873-3.657-4.189c-2.472,0.684-22.229,15.267-22.745,17.08c-0.516,1.813,2.896,5.77,4.355,5.522
				c1.458-0.249,14.022-8.842,14.022-8.842"/>
		</g>
		<g>
			<path style="fill:none;stroke:#72C6D1;stroke-width:1.5;stroke-linecap:round;stroke-linejoin:round;stroke-miterlimit:10;" d="
				M616.209,349.476c0,0-8.888,6.687-9.346,7.741c-0.458,1.053,0.713,2.935,2.273,2.407c1.56-0.529,17.763-12.224,17.99-13.313
				c0.227-1.089-1.186-4.873-3.657-4.19c-2.471,0.684-22.229,15.267-22.745,17.08c-0.516,1.813,2.897,5.77,4.355,5.522
				c1.458-0.249,14.022-8.842,14.022-8.842"/>
		</g>
	</g>
	<g>
		<g>
			<g>
				<path style="fill:#C6F2E1;" d="M27.889,162.026c0,0,5.648,17.347,5.831,16.504s-2.589-17.265-2.589-17.265L27.889,162.026z"/>
				<path style="fill:none;stroke:#343743;stroke-width:0.75;stroke-miterlimit:10;" d="M28.208,163.375
					c0,0,5.274,15.68,5.512,15.155c0.238-0.525-1.135-9.292-1.135-9.292"/>
				<path style="fill:#952315;" d="M22.677,161.047l2.097-4.996c0,0-6.316-7.657-4.428-8.525c1.888-0.868,11.825-3.561,12.325-1.915
					c0.5,1.646-1.079,7.508-0.331,8.963c0.556,1.081,3.439,3.751,3.439,3.751l0.679,3.179l-13.328,3.027L22.677,161.047z"/>
				
					<line style="fill:none;stroke:#343743;stroke-width:0.75;stroke-miterlimit:10;" x1="23.189" y1="164.591" x2="36.458" y2="161.505"/>
				<path style="fill:#DE5831;" d="M20.346,147.527c-0.645,0.297-0.332,1.386,0.36,2.692l12.007-2.59
					c0.076-0.858,0.089-1.585-0.042-2.017C32.171,143.966,22.234,146.659,20.346,147.527z"/>
				<line style="fill:none;stroke:#343743;stroke-miterlimit:10;" x1="24.774" y1="156.051" x2="32.544" y2="154.264"/>
				<line style="fill:none;stroke:#343743;stroke-miterlimit:10;" x1="21.206" y1="149.881" x2="32.603" y2="147.633"/>
			</g>
			<path style="fill:none;stroke:#343743;stroke-width:0.75;stroke-miterlimit:10;" d="M24.75,156.111c0,0-5.202-7.436-4.404-8.584
				c0.798-1.148,11.409-2.747,12.01-2.407"/>
		</g>
		<g>
			<g>
				<path style="fill:#C6F2E1;" d="M724.259,347.455c0,0-3.637,17.877-3.062,17.234s6.257-16.298,6.257-16.298L724.259,347.455z"/>
				<path style="fill:none;stroke:#343743;stroke-width:0.75;stroke-miterlimit:10;" d="M723.871,348.786
					c0,0-3.14,16.243-2.674,15.903c0.466-0.34,3.592-8.644,3.592-8.644"/>
				<path style="fill:#4F8A49;" d="M720.207,344.035l4.287-3.313c0,0-1.721-9.775,0.349-9.6c2.07,0.175,12.044,2.731,11.668,4.409
					c-0.377,1.678-4.64,6-4.706,7.635c-0.049,1.215,1.144,4.959,1.144,4.959l-0.977,3.1l-13.088-3.936L720.207,344.035z"/>
				
					<line style="fill:none;stroke:#343743;stroke-width:0.75;stroke-miterlimit:10;" x1="718.906" y1="347.37" x2="731.971" y2="351.225"/>
				<path style="fill:#64AF5D;" d="M724.842,331.122c-0.707-0.06-0.972,1.043-1.014,2.519l11.723,3.665
					c0.489-0.709,0.859-1.335,0.958-1.775C736.886,333.852,726.913,331.297,724.842,331.122z"/>
				<line style="fill:none;stroke:#343743;stroke-miterlimit:10;" x1="724.493" y1="340.721" x2="732.135" y2="342.996"/>
				<line style="fill:none;stroke:#343743;stroke-miterlimit:10;" x1="724.43" y1="333.594" x2="735.455" y2="337.255"/>
			</g>
			<path style="fill:none;stroke:#343743;stroke-width:0.75;stroke-miterlimit:10;" d="M724.443,340.761
				c0,0-0.861-9.034,0.399-9.639c1.26-0.605,11.281,3.234,11.636,3.826"/>
		</g>
		<g>
			<g>
				<path style="fill:#C6F2E1;" d="M177.919,468.43c0,0,9.197,15.756,9.197,14.893c0-0.863-6.191-16.323-6.191-16.323
					L177.919,468.43z"/>
				<path style="fill:none;stroke:#343743;stroke-width:0.75;stroke-miterlimit:10;" d="M178.516,469.681
					c0,0,8.479,14.206,8.6,13.642c0.121-0.564-3.079-8.84-3.079-8.84"/>
				<path style="fill:#5596B1;" d="M172.618,468.578l0.99-5.327c0,0-7.795-6.144-6.135-7.392c1.661-1.248,10.801-5.987,11.639-4.484
					c0.837,1.502,0.537,7.566,1.577,8.829c0.773,0.939,4.156,2.937,4.156,2.937l1.337,2.963l-12.383,5.783L172.618,468.578z"/>
				
					<line style="fill:none;stroke:#343743;stroke-width:0.75;stroke-miterlimit:10;" x1="173.87" y1="471.932" x2="186.182" y2="466.104"/>
				<path style="fill:#72C6D1;" d="M167.474,455.859c-0.568,0.427-0.03,1.425,0.922,2.554l11.185-5.076
					c-0.108-0.854-0.249-1.568-0.468-1.962C178.275,449.873,169.134,454.611,167.474,455.859z"/>
				<line style="fill:none;stroke:#343743;stroke-miterlimit:10;" x1="173.608" y1="463.251" x2="180.823" y2="459.858"/>
				<line style="fill:none;stroke:#343743;stroke-miterlimit:10;" x1="168.813" y1="457.978" x2="179.474" y2="453.365"/>
			</g>
			<path style="fill:none;stroke:#343743;stroke-width:0.75;stroke-miterlimit:10;" d="M173.597,463.315
				c0,0-6.661-6.164-6.124-7.455s10.568-5.103,11.227-4.898"/>
		</g>
		<g>
			<g>
				<path style="fill:#C6F2E1;" d="M487.791,30.966c0,0-3.276,17.947-2.714,17.292c0.562-0.654,5.928-16.42,5.928-16.42
					L487.791,30.966z"/>
				<path style="fill:none;stroke:#343743;stroke-width:0.75;stroke-miterlimit:10;" d="M487.43,32.305
					c0,0-2.812,16.303-2.353,15.954c0.459-0.349,3.418-8.714,3.418-8.714"/>
				<path style="fill:#DD973D;" d="M483.671,27.628l4.219-3.399c0,0-1.917-9.738,0.156-9.605c2.073,0.134,12.096,2.488,11.754,4.173
					c-0.343,1.685-4.518,6.093-4.551,7.729c-0.025,1.216,1.243,4.935,1.243,4.935l-0.914,3.119l-13.165-3.672L483.671,27.628z"/>
				
					<line style="fill:none;stroke:#343743;stroke-width:0.75;stroke-miterlimit:10;" x1="482.437" y1="30.989" x2="495.578" y2="34.58"/>
				<path style="fill:#EEC141;" d="M488.046,14.624c-0.708-0.046-0.951,1.062-0.963,2.539l11.795,3.428
					c0.474-0.719,0.832-1.352,0.922-1.794C500.142,17.112,490.119,14.758,488.046,14.624z"/>
				<line style="fill:none;stroke:#343743;stroke-miterlimit:10;" x1="487.89" y1="24.229" x2="495.576" y2="26.35"/>
				<line style="fill:none;stroke:#343743;stroke-miterlimit:10;" x1="487.683" y1="17.104" x2="498.779" y2="20.543"/>
			</g>
			<path style="fill:none;stroke:#343743;stroke-width:0.75;stroke-miterlimit:10;" d="M487.841,24.27c0,0-1.043-9.015,0.205-9.646
				c1.248-0.63,11.344,3.006,11.711,3.591"/>
		</g>
	</g>
</g>
</svg>
