<svg height="64" viewBox="0 0 64 64" width="64" xmlns="http://www.w3.org/2000/svg"><g fill="none" fill-rule="evenodd"><path d="m-15.5 36.5c0-2.7614237 2.2352889-5 5.0075552-5h41.9924448v10h-47z" fill="#6b6b6b" transform="matrix(0 -1 1 0 -28.5 44.5)"/><path d="m10 18h33v42h-33z" fill="#ed9111"/><path d="m3 13c0-2.7614237 2.23520515-5 5.00691225-5h32.99308775v10h-32.99308775c-2.76524128 0-5.00691225-2.2441952-5.00691225-5z" fill="#d0d0d0"/><path d="m8 14h30c.5522847 0 1-.4477153 1-1s-.4477153-1-1-1h-30c-.55228475 0-1 .4477153-1 1s.44771525 1 1 1z" fill="#989898" fill-rule="nonzero"/><path d="m49 20h9v34.5071706c0 2.4813212-2.0197757 4.4928294-4.5 4.4928294-2.4852814 0-4.5-2.0146851-4.5-4.4928294z" fill="#957f62"/><g transform="translate(49 10)"><path d="m4.5 0 4.5 10h-9z" fill="#d3b288"/><path d="m6.75 5-2.25-5-2.25 5z" fill="#957f62"/></g><path d="m52 20v38c0 .5522847.4477153 1 1 1s1-.4477153 1-1v-38c0-.5522847-.4477153-1-1-1s-1 .4477153-1 1z" fill="#d2b288" fill-rule="nonzero"/></g></svg>