<svg height="64" viewBox="0 0 64 64" width="64" xmlns="http://www.w3.org/2000/svg"><g fill="none" fill-rule="evenodd"><path d="m19.045 4h30.955v56h-38v-49.935z" fill="#e6e6e6"/><g fill="#979797" fill-rule="nonzero"><path d="m17 17h26.021v-2h-26.021z"/><path d="m17 25h26.021v-2h-26.021z"/><path d="m17 21h13v-2h-13z"/><path d="m17 29h13v-2h-13z"/><path d="m31 21h14v-2h-14z"/></g><path d="m19 4v6h-7z" fill="#cdcdcd"/><path d="m38.705 54.385c-.01.0900005-.0299998.3049983-.06.645-.01.1800009-.0499996.3149996-.12.405-.0500002.0300002-.1349994.045-.255.045-.3300016 0-.7399975-.0849992-1.23-.255-.5300026-.1600008-.889999-.3499989-1.08-.57-.0800004-.0900004-.1599996-.3899975-.24-.9-.1100005-.6700034-.2349993-1.2249978-.375-1.665-.3800019.0500002-.9349963.1874989-1.665.4125-.7300036.2250011-1.2049989.4124993-1.425.5625-.1500007.4300022-.3499987.9599968-.6 1.59-.0300001.1400007-.0624998.2724994-.0975.3975s-.1224993.2274996-.2625.3075c-.0300001.0200001-.0749997.03-.135.03-.2400012 0-.6424972-.1249988-1.2075-.375s-.8574999-.4149996-.8775-.495c-.0400002-.1400007.0549989-.4849973.285-1.035.3200016-.800004.5049998-1.2899991.555-1.47-.210001-.210001-.315-.419999-.315-.63 0-.0500003.005-.1049997.015-.165.0200001-.1200006.3249971-.3349985.915-.645l1.935-6.615c.0300002-.1200006.0350001-.3399984.015-.66-.0200001-.2700013.0099996-.4399997.09-.51.0500003-.0500002.1699991-.075.36-.075.4700024 0 1.1399957.1199988 2.01.36.8700044.2400012 1.3899992.4549991 1.56.645.0600003 1.1100056.2849981 2.7749889.675 4.995.5000025 2.7400137 1.0099974 4.6299948 1.53 5.67zm-3.915-4.56c-.1300006-.6300031-.2099998-1.044999-.24-1.245-.1100005-.6700033-.1849998-1.3649964-.225-2.085-.200001.4900025-.4349986 1.1699957-.705 2.04-.2900014.9100046-.4449999 1.4799988-.465 1.71.190001-.0800004.7349955-.219999 1.635-.42zm11.16-.45h-2.1v1.725c0 .0700004.0274997.1574995.0825.2625s.0775001.1924997.0675.2625c-.0200001.1500008-.0974993.2749995-.2325.375s-.2824992.15-.4425.15c-.0700003 0-.1349997-.0099999-.195-.03-.0900004-.0300001-.2099992-.1224992-.36-.2775-.1500007-.1550008-.2949993-.3074993-.435-.4575-.1900009-.1400007-.4049988-.3449986-.645-.615-.0200001-.0600003-.0100002-.1374995.03-.2325s.06-.1674998.06-.2175v-.885l-.99.075c-.0500002 0-.1074997.0199998-.1725.06s-.1174998.06-.1575.06-.0799998-.0099999-.12-.03c-.3200016-.1800009-.7099977-.6599961-1.17-1.44-.1000005-.1700008-.1250002-.3299993-.075-.48.0500003-.1500008.1849989-.2499997.405-.3.0500003-.0100001.2549982-.0299998.615-.06.790004-.0600003 1.3199987-.09 1.59-.09v-2.775c0-.0800004.0849992-.1774994.255-.2925.1700009-.1150006.3349992-.1824999.495-.2025.1300007-.0200001.3799982.1899978.75.63.3700019.4400022.5999996.7999986.69 1.08.0400002.1400007.06.2649994.06.375 0 .0700003-.0174998.2124989-.0525.4275s-.0525.4324989-.0525.6525h1.05c.1700009 0 .3949986-.0299997.675-.09.2300012-.0400002.3749997-.0550001.435-.045.1500008.0400002.2999993.2824978.45.7275.1500008.4450022.225.8324984.225 1.1625 0 .2200011-.0699993.3649996-.21.435-.0900004.0400002-.2649987.06-.525.06z" fill="#fb3a3a"/></g></svg>