<svg id="Layer_1" data-name="Layer 1" xmlns="http://www.w3.org/2000/svg" xmlns:xlink="http://www.w3.org/1999/xlink" viewBox="0 0 2000 2000"><defs><style>.cls-1{fill:url(#linear-gradient);}.cls-2{fill:url(#linear-gradient-2);}.cls-3{fill:#fff;}.cls-4{fill:#3d465d;}</style><linearGradient id="linear-gradient" x1="750.52" y1="2080.89" x2="750.52" y2="423.11" gradientTransform="matrix(1, 0, 0, -1, 250, 2252)" gradientUnits="userSpaceOnUse"><stop offset="0" stop-color="#7baaeb"/><stop offset="1" stop-color="#6c75e9"/></linearGradient><linearGradient id="linear-gradient-2" x1="750" y1="2086.07" x2="750" y2="1184.65" gradientTransform="matrix(1, 0, 0, -1, 250, 2252)" gradientUnits="userSpaceOnUse"><stop offset="0" stop-color="#95c2f0"/><stop offset="1" stop-color="#6b8ee9"/></linearGradient></defs><g id="blue_body_squircle" data-name="blue body squircle"><g id="Symbol_46_0_Layer0_0_FILL" data-name="Symbol 46 0 Layer0 0 FILL"><path class="cls-1" d="M1409.26,290.26Q1257,254,1000,254q-258,0-409.26,36.26Q428.07,329.64,336.89,419.78,246.74,511,207.37,673.62q-32.12,136.77-35.22,357.46v20.73q3.1,220.68,35.22,357.45Q246.75,1573,336.89,1663.11q91.17,91.19,253.85,129.51Q742,1828.89,1000,1828.89q256.95,0,409.26-36.27,163.71-38.32,253.85-129.51,91.19-90.13,129.51-253.85,32.13-134.68,36.27-352.27V1025.9q-4.14-217.58-36.27-352.28Q1754.3,511,1663.11,419.78,1573,329.63,1409.26,290.26Z"/><path class="cls-2" d="M1000,254q256.95,0,409.26,36.26Q1573,329.64,1663.11,419.78,1754.3,511,1792.62,673.62q32.13,134.7,36.27,352.28V1000q0-256.95-36.27-409.26-38.32-162.67-129.51-253.85Q1573,246.74,1409.26,207.37,1257,171.11,1000,171.11q-258,0-409.26,36.26Q428.07,246.75,336.89,336.89q-90.15,91.17-129.52,253.85Q171.11,743.05,171.11,1000q0,15.54,1,31.08,3.1-220.68,35.22-357.46Q246.75,511,336.89,419.78q91.17-90.15,253.85-129.52Q742,254,1000,254Z"/></g></g><g id="face_a" data-name="face a"><g id="Symbol_91_0_Layer0_0_MEMBER_0_FILL" data-name="Symbol 91 0 Layer0 0 MEMBER 0 FILL"><path class="cls-3" d="M454.76,714.4q-72.94,72.95-72.94,174.33,0,102.62,72.94,174.32,71.72,73,174.33,73t174.33-73q72.95-71.7,72.94-174.32,0-101.38-72.94-174.33-71.71-72.95-174.33-72.95T454.76,714.4Z"/></g><g id="Symbol_91_0_Layer0_0_MEMBER_1_FILL" data-name="Symbol 91 0 Layer0 0 MEMBER 1 FILL"><path class="cls-4" d="M734.18,993.82q43.27-43.27,43.27-105.09,0-60.59-43.27-103.86-43.27-44.5-105.09-44.51-60.58,0-103.86,44.51-44.5,43.27-44.51,103.86,0,61.82,44.51,105.09,43.28,43.27,103.86,43.27Q690.91,1037.09,734.18,993.82Z"/></g><g id="Symbol_91_0_Layer0_1_MEMBER_0_FILL" data-name="Symbol 91 0 Layer0 1 MEMBER 0 FILL"><path class="cls-3" d="M1196.58,714.4q-72.94,72.95-72.94,174.33,0,102.62,72.94,174.32,71.72,73,174.33,73t174.33-73q72.94-71.7,72.94-174.32,0-101.38-72.94-174.33-71.71-72.95-174.33-72.95T1196.58,714.4Z"/></g><g id="Symbol_91_0_Layer0_1_MEMBER_1_FILL" data-name="Symbol 91 0 Layer0 1 MEMBER 1 FILL"><path class="cls-4" d="M1476,993.82q43.27-43.27,43.28-105.09,0-60.59-43.28-103.86-43.27-44.5-105.09-44.51-60.59,0-103.85,44.51-44.52,43.27-44.51,103.86,0,61.82,44.51,105.09,43.26,43.27,103.85,43.27Q1432.73,1037.09,1476,993.82Z"/></g><g id="Symbol_91_0_Layer0_2_FILL" data-name="Symbol 91 0 Layer0 2 FILL"><path class="cls-4" d="M1202.76,1295.49v-1.23q14.85-11.13,28.44-22.26a47.8,47.8,0,0,0,16.07-33.38q1.24-21-12.36-35.86-13.61-16.07-33.38-17.3-21-1.24-35.86,12.36-9.89,8.65-21,17.31h-1.24q-59.34,44.5-143.42,44.51-86.55,0-147.13-44.51-7.41-6.18-13.6-12.37-13.59-16.07-33.38-17.3-21-1.24-35.85,12.36a47.21,47.21,0,0,0-17.31,34.62q-1.25,19.79,12.36,35.85a202.83,202.83,0,0,0,27.2,24.73,1.1,1.1,0,0,1,1.24,1.24q85.31,64.29,206.47,64.29Q1118.7,1358.55,1202.76,1295.49Z"/></g></g></svg>