<svg height="64" viewBox="0 0 64 64" width="64" xmlns="http://www.w3.org/2000/svg"><g fill="none" fill-rule="evenodd"><path d="m4 20.996524c0-1.6549345 1.34275388-2.996524 2.99100514-2.996524h50.01798976c1.6518865 0 2.9910051 1.3387083 2.9910051 2.996524v34.003476h-56z" fill="#c13f98"/><circle cx="32" cy="54" fill="#c13f98" r="3"/><path d="m7 15s6.25-3 12.5-3 12.5 3 12.5 3v37s-6.25-3-12.5-3-12.5 3-12.5 3z" fill="#d8d8d8"/><path d="m11 23h17v-2h-17z" fill="#b6b6b6" fill-rule="nonzero"/><path d="m11 27h9v-2h-9z" fill="#b6b6b6" fill-rule="nonzero"/><path d="m11 31h14v-2h-14z" fill="#b6b6b6" fill-rule="nonzero"/><path d="m32 15s6.25-3 12.5-3 12.5 3 12.5 3v37s-6.25-3-12.5-3-12.5 3-12.5 3z" fill="#e9e9e9"/><g fill="#b6b6b6" fill-rule="nonzero"><path d="m36 23h18v-2h-18z"/><path d="m36 27h18v-2h-18z"/><path d="m36 31h18v-2h-18z"/><path d="m36 35h12v-2h-12z"/></g></g></svg>