<svg height="64" viewBox="0 0 64 64" width="64" xmlns="http://www.w3.org/2000/svg"><g fill="none" fill-rule="evenodd"><path d="m33 21v12h-8c0-2.7614237-2.2385763-5-5-5s-5 2.2385763-5 5h-8v-12h-1.17070571c-.41183641 1.1651924-1.52307546 2-2.82929429 2-1.65685425 0-3-1.3431458-3-3s1.34314575-3 3-3c1.30621883 0 2.41745788.8348076 2.82929429 2h1.17070571v-12h8c0 2.76142375 2.2385763 5 5 5s5-2.23857625 5-5h8v12h1.1707057c.4118364-1.1651924 1.5230755-2 2.8292943-2 1.6568542 0 3 1.3431458 3 3s-1.3431458 3-3 3c-1.3062188 0-2.4174579-.8348076-2.8292943-2z" fill="#56e287"/><path d="m63 21v12h-8c0-2.7614237-2.2385763-5-5-5s-5 2.2385763-5 5h-8v-12h-1.1707057c-.4118364 1.1651924-1.5230755 2-2.8292943 2-1.6568542 0-3-1.3431458-3-3s1.3431458-3 3-3c1.3062188 0 2.4174579.8348076 2.8292943 2h1.1707057v-12h8c0 2.76142375 2.2385763 5 5 5s5-2.23857625 5-5h8v12h1.1707057c.4118364-1.1651924 1.5230755-2 2.8292943-2 1.6568542 0 3 1.3431458 3 3s-1.3431458 3-3 3c-1.3062188 0-2.4174579-.8348076-2.8292943-2z" fill="#6b6b6b" transform="matrix(0 -1 1 0 30 70)"/><path d="m33 44v12h-12v1.1707057c1.1651924.4118364 2 1.5230755 2 2.8292943 0 1.6568542-1.3431458 3-3 3s-3-1.3431458-3-3c0-1.3062188.8348076-2.4174579 2-2.8292943v-1.1707057h-12v-8c2.76142375 0 5-2.2385763 5-5s-2.23857625-5-5-5v-8h8c0 2.7614237 2.2385763 5 5 5s5-2.2385763 5-5h8v12h1.1707057c.4118364-1.1651924 1.5230755-2 2.8292943-2 1.6568542 0 3 1.3431458 3 3s-1.3431458 3-3 3c-1.3062188 0-2.4174579-.8348076-2.8292943-2z" fill="#4796e7" transform="matrix(0 -1 1 0 -23 70)"/></g></svg>