<svg height="64" viewBox="0 0 64 64" width="64" xmlns="http://www.w3.org/2000/svg"><g fill="none" fill-rule="evenodd"><path d="m9.125 49.9206814c0-2.2134794 1.7750001-4.2212477 3.9692715-4.4850408l19.9057285-2.393047 19.9057285 2.393047c2.1921681.2635402 3.9692715 2.2649782 3.9692715 4.4850408v12.1219122h-47.75z" fill="#5b68c0"/><g fill="#ffdd95"><path d="m25.0909091 40.0820517c-3.9680031-3.7649165-6.5909091-9.8586518-6.5909091-14.9488825 0-8.0081289 6.4918711-14.5 14.5-14.5s14.5 6.4918711 14.5 14.5c0 5.0902307-2.622906 11.183966-6.5909091 14.9488825v8.8238448s-5.361602 1.909585-7.9090909 1.909585-7.9090909-1.909585-7.9090909-1.909585z"/><circle cx="19" cy="28" r="3"/><circle cx="47" cy="28" r="3"/></g><path d="m19 13.5c0-3.0375661 2.4578519-5.5 5.5009961-5.5h26.4990039v5.5c0 3.0375661-2.4578519 5.5-5.5009961 5.5h-26.4990039z" fill="#ffaf40"/></g></svg>